<svg width="100" height="100" viewBox="0 0 100 100" fill="none" xmlns="http://www.w3.org/2000/svg">
<g clip-path="url(#clip0_221_4)">
<path d="M47.5333 0.507754L3.78844 19.2556C1.05438 20.4273 -0.468875 23.3566 0.136523 26.2469C0.741921 29.1372 3.28069 31.2463 6.24909 31.2463V32.8086C6.24909 35.406 8.33868 37.4956 10.936 37.4956H89.0519C91.6492 37.4956 93.7388 35.406 93.7388 32.8086V31.2463C96.7072 31.2463 99.2655 29.1567 99.8514 26.2469C100.437 23.3371 98.914 20.4078 96.1995 19.2556L52.4546 0.507754C50.8923 -0.15623 49.0956 -0.15623 47.5333 0.507754ZM24.9969 43.7449H12.4984V82.0802C12.3812 82.1388 12.264 82.2169 12.1468 82.295L2.77293 88.5443C0.488044 90.0676 -0.546991 92.9188 0.253697 95.5552C1.05438 98.1916 3.4955 99.9883 6.24909 99.9883H93.7388C96.4924 99.9883 98.914 98.1916 99.7147 95.5552C100.515 92.9188 99.4999 90.0676 97.1954 88.5443L87.8215 82.295C87.7044 82.2169 87.5872 82.1583 87.47 82.0802L87.4895 43.7449H74.991V81.2405H67.1794V43.7449H54.6809V81.2405H45.307V43.7449H32.8085V81.2405H24.9969V43.7449ZM49.994 12.4985C51.6514 12.4985 53.2409 13.1569 54.4128 14.3289C55.5848 15.5009 56.2432 17.0904 56.2432 18.7478C56.2432 20.4052 55.5848 21.9947 54.4128 23.1667C53.2409 24.3387 51.6514 24.9971 49.994 24.9971C48.3365 24.9971 46.747 24.3387 45.5751 23.1667C44.4031 21.9947 43.7447 20.4052 43.7447 18.7478C43.7447 17.0904 44.4031 15.5009 45.5751 14.3289C46.747 13.1569 48.3365 12.4985 49.994 12.4985Z" fill="#A02AEB"/>
</g>
<defs>
<clipPath id="clip0_221_4">
<rect width="100" height="100" fill="white"/>
</clipPath>
</defs>
</svg>
