<svg width="39" height="39" viewBox="0 0 39 39" fill="none" xmlns="http://www.w3.org/2000/svg">
<circle cx="19.5" cy="19.5" r="19.5" fill="#8FBF21"/>
<rect x="9.02246" y="15.4254" width="5.52985" height="11.9328" fill="white"/>
<rect x="24.4478" y="15.4254" width="5.52985" height="11.9328" fill="white"/>
<rect x="6.98511" y="27.9403" width="25.0299" height="2.91045" fill="white"/>
<path d="M20.8096 16.4441H18.0446C18.0446 16.4441 17.7328 16.7729 17.7536 17.0262C17.7891 17.4575 18.272 17.2295 18.4813 17.6083C18.6462 17.9067 18.6268 18.1904 18.6268 18.1904V18.1905C18.6268 18.3362 18.6268 18.7725 18.3358 19.0635C18.0446 19.3545 16.5438 20.1668 16.1529 21.3919C15.8937 22.2039 15.9453 22.7479 16.1529 23.5747C16.5073 24.9864 18.4812 26.4851 18.4812 26.4851H20.5185C20.5185 26.4851 22.347 24.9864 22.7015 23.5747C22.909 22.7479 22.9926 22.4105 22.7015 21.3919C22.4103 20.3732 21.1007 19.5001 20.6641 19.0635C20.41 18.8093 20.3731 18.1904 20.3731 18.1904C20.3731 18.1904 20.3482 17.9036 20.5186 17.6083C20.6842 17.3212 21.0648 17.3556 21.1007 17.0262C21.1315 16.7437 20.8096 16.4441 20.8096 16.4441Z" fill="white"/>
<path d="M6.98511 13.097V14.8433H31.8694V13.097L19.5 6.11194L6.98511 13.097Z" fill="white"/>
</svg>
