<svg width="38" height="38" viewBox="0 0 38 38" fill="none" xmlns="http://www.w3.org/2000/svg">
<g clip-path="url(#clip0_195_17)">
<path d="M20.6136 36.2198V32.1953H24.6475V36.2198H20.6136ZM16.5799 32.1953V22.1343H20.6136V32.1953H16.5799ZM32.715 26.1587V18.1099H36.7487V26.1587H32.715ZM28.6812 18.1099V14.0854H32.715V18.1099H28.6812ZM4.4786 22.1343V18.1099H8.51237V22.1343H4.4786ZM0.444824 18.1099V14.0854H4.4786V18.1099H0.444824ZM18.5968 4.02441V0H22.6306V4.02441H18.5968ZM3.47015 9.05493H9.52081V3.01831H3.47015V9.05493ZM0.444824 12.0732V0H12.5462V12.0732H0.444824ZM3.47015 33.2014H9.52081V27.1648H3.47015V33.2014ZM0.444824 36.2198V24.1464H12.5462V36.2198H0.444824ZM27.6728 9.05493H33.7234V3.01831H27.6728V9.05493ZM24.6475 12.0732V0H36.7487V12.0732H24.6475ZM28.6812 36.2198V30.1831H24.6475V26.1587H32.715V32.1953H36.7487V36.2198H28.6812ZM20.6136 22.1343V18.1099H28.6812V22.1343H20.6136ZM12.5462 22.1343V18.1099H8.51237V14.0854H20.6136V18.1099H16.5799V22.1343H12.5462ZM14.563 12.0732V4.02441H18.5968V8.04883H22.6306V12.0732H14.563ZM4.98282 7.54578V4.52747H8.00815V7.54578H4.98282ZM4.98282 31.6923V28.6739H8.00815V31.6923H4.98282ZM29.1854 7.54578V4.52747H32.2108V7.54578H29.1854Z" fill="#A02AEB"/>
</g>
<defs>
<clipPath id="clip0_195_17">
<rect width="37.1" height="37.1" fill="white"/>
</clipPath>
</defs>
</svg>
