<svg width="100" height="100" viewBox="0 0 100 100" fill="none" xmlns="http://www.w3.org/2000/svg">
<g clip-path="url(#clip0_221_2)">
<path d="M100 18.75C100 28.5547 88.457 43.1836 83.4766 49.0234C82.7344 49.8828 81.6406 50.2148 80.6445 50H62.5C59.043 50 56.25 52.793 56.25 56.25C56.25 59.707 59.043 62.5 62.5 62.5H81.25C91.6016 62.5 100 70.8984 100 81.25C100 91.6016 91.6016 100 81.25 100H27.2656C28.9648 98.0664 31.0352 95.5859 33.125 92.8125C34.3555 91.1719 35.625 89.375 36.8359 87.5H81.25C84.707 87.5 87.5 84.707 87.5 81.25C87.5 77.793 84.707 75 81.25 75H62.5C52.1484 75 43.75 66.6016 43.75 56.25C43.75 45.8984 52.1484 37.5 62.5 37.5H70.2734C66.1719 31.3477 62.5 24.2773 62.5 18.75C62.5 8.39844 70.8984 0 81.25 0C91.6016 0 100 8.39844 100 18.75ZM22.8711 95.5273C22.1289 96.3672 21.4648 97.1094 20.8984 97.7344L20.5469 98.125L20.5078 98.0859C19.3359 98.9844 17.6563 98.8672 16.6016 97.7344C11.6797 92.3828 0 78.6133 0 68.75C0 58.3984 8.39844 50 18.75 50C29.1016 50 37.5 58.3984 37.5 68.75C37.5 74.6094 33.3789 81.8359 29.0039 87.8711C26.9141 90.7422 24.7656 93.3398 22.9883 95.3906L22.8711 95.5273ZM25 68.75C25 67.0924 24.3415 65.5027 23.1694 64.3306C21.9973 63.1585 20.4076 62.5 18.75 62.5C17.0924 62.5 15.5027 63.1585 14.3306 64.3306C13.1585 65.5027 12.5 67.0924 12.5 68.75C12.5 70.4076 13.1585 71.9973 14.3306 73.1694C15.5027 74.3415 17.0924 75 18.75 75C20.4076 75 21.9973 74.3415 23.1694 73.1694C24.3415 71.9973 25 70.4076 25 68.75ZM81.25 25C82.9076 25 84.4973 24.3415 85.6694 23.1694C86.8415 21.9973 87.5 20.4076 87.5 18.75C87.5 17.0924 86.8415 15.5027 85.6694 14.3306C84.4973 13.1585 82.9076 12.5 81.25 12.5C79.5924 12.5 78.0027 13.1585 76.8306 14.3306C75.6585 15.5027 75 17.0924 75 18.75C75 20.4076 75.6585 21.9973 76.8306 23.1694C78.0027 24.3415 79.5924 25 81.25 25Z" fill="white"/>
</g>
<defs>
<clipPath id="clip0_221_2">
<rect width="100" height="100" fill="white"/>
</clipPath>
</defs>
</svg>
